<svg t="1616915238035" class="icon" viewBox="0 0 1024 1024" version="1.1" xmlns="http://www.w3.org/2000/svg" p-id="11243" width="260" height="260"><path d="M98.51 482.69H482.2V99H98.51v383.69z m64-319.69H418.2v255.69H162.51V163z" fill="#333333" p-id="11244"></path><path d="M222.37 358.83h135.96V222.87H222.37v135.96z m56-79.96h23.96v23.96h-23.96v-23.96zM222.37 803.88h135.96V667.92H222.37v135.96z m56-79.96h23.96v23.96h-23.96v-23.96zM802.8 222.87H666.84v135.96H802.8V222.87z m-56 79.96h-23.96v-23.96h23.96v23.96z" fill="#333333" p-id="11245"></path><path d="M98.51 927.64H482.2V543.95H98.51v383.69z m64-319.69H418.2v255.69H162.51V607.95zM927.94 99H544.25v383.69h383.69V99z m-64 319.69H608.25V163h255.69v255.69zM544.07 543.14h192.1v63.92h-192.1zM802 799.82V735.9H672.33v63.64h-65.12v63.92h65.83v-63.64zM736.18 607.74v63.81H576v63.92h226V607.74zM802 543.14h126.21v63.92H802z" fill="#333333" p-id="11246"></path><path d="M864.3 639.52v160.02h-62.12v63.92h62.12v0.22H704.14v63.92H928.22V639.52zM544.07 863.57h96.05v63.92h-96.05z" fill="#333333" p-id="11247"></path></svg>