<svg xmlns="http://www.w3.org/2000/svg" viewBox="0 0 16 16" id="edit-event"><path d="M13.75 14.25H2.25a.5.5 0 01-.5-.5V2.25a.5.5 0 01.5-.5h4.625c.069 0 .125.056.125.125v.875a.125.125 0 01-.125.125h-4v10.25h10.25v-4c0-.069.056-.125.125-.125h.875c.069 0 .125.056.125.125v4.625a.5.5 0 01-.5.5zM6.329 9.68c2.106-.703 3.72-1.786 4.895-3.392l-1.5-.327a7.059 7.059 0 011.261-1.075 7.07 7.07 0 011.487-.733l.6-1.463c-.72.057-1.466.248-2.24.575-.775.327-1.497.866-2.236 1.587-.74.72-1.293 1.455-1.623 2.073-.33.619-.848 1.767-1.233 3.184.116-.085.308-.336.589-.43zm6.18-3.741a.476.476 0 01-.069.246A9.712 9.712 0 019.561 9.2c-.884.585-1.786.917-2.954 1.33-.01.003-.463.332-.673.569-.21.236-.315.57-.562.983-.134.223-.481.195-.618.097a.494.494 0 01-.186-.465c.371-2.468 1.04-4.136 1.639-5.26.6-1.124 1.035-1.618 1.784-2.35.75-.73 1.684-1.341 2.51-1.69.825-.348 2.23-.7 3.29-.661a.477.477 0 01.423.656L13.3 4.641a.47.47 0 01-.21.235c-.325.113-.605.215-.842.304-.237.09-.481.186-.732.29.03 0 .571-.005.6 0a.476.476 0 01.394.469z" fill="#595959" fill-rule="evenodd"></path></svg>