<svg xmlns="http://www.w3.org/2000/svg" viewBox="0 0 16 16" id="import_x"><g fill-rule="nonzero" fill="none"><path opacity=".283" d="M0 0h16v16H0z"></path><path d="M13.88 11.834h-.84a.121.121 0 00-.121.12v.966h-9.84V3.08h9.841v.965c0 .066.055.12.12.12h.841a.12.12 0 00.12-.12V2.48a.479.479 0 00-.48-.48H2.48a.479.479 0 00-.48.48v11.04c0 .266.214.48.48.48h11.04c.266 0 .48-.214.48-.48v-1.565a.12.12 0 00-.12-.12zm.214-4.396H9.188V6.25a.125.125 0 00-.204-.098l-2.217 1.75a.125.125 0 000 .196l2.217 1.75a.125.125 0 00.204-.098V8.562h4.906a.125.125 0 00.125-.124v-.876a.125.125 0 00-.125-.125z" fill="#8C8C8C"></path></g></svg>