<svg xmlns="http://www.w3.org/2000/svg" viewBox="0 0 16 16" id="import_doc"><g fill="#8C8C8C" fill-rule="nonzero"><path d="M10.631 1H2.2a.2.2 0 00-.2.2v12.6c0 .11.09.2.2.2h7.597a.2.2 0 00.2-.2v-.6a.2.2 0 00-.2-.2H3.2a.2.2 0 01-.2-.2V2.2c0-.11.09-.2.2-.2h6.1c.11 0 .2.09.2.2v3.147c0 .11.09.2.2.2h3.1c.11 0 .2.09.2.2v.362l-.001 2.682a.2.2 0 00.2.2h.6a.2.2 0 00.2-.2L14 6.109V4.83a.2.2 0 00-.05-.132l-3.168-3.629A.2.2 0 0010.63 1zm.22 1.667l1.352 1.548a.2.2 0 01-.151.332H10.7a.2.2 0 01-.2-.2V2.799a.2.2 0 01.35-.132z"></path><path d="M4.2 9h7.6c.11 0 .2.09.2.2v.6a.2.2 0 01-.2.2H4.2a.2.2 0 01-.2-.2v-.6c0-.11.09-.2.2-.2zm0-2h7.6c.11 0 .2.09.2.2v.6a.2.2 0 01-.2.2H4.2a.2.2 0 01-.2-.2v-.6c0-.11.09-.2.2-.2zM13.8 15h-.6a.2.2 0 01-.2-.2v-1.6a.2.2 0 00-.2-.2h-1.6a.2.2 0 01-.2-.2v-.6c0-.11.09-.2.2-.2h1.6a.2.2 0 00.2-.2v-1.6c0-.11.09-.2.2-.2h.6c.11 0 .2.09.2.2v1.6c0 .11.09.2.2.2h1.6c.11 0 .2.09.2.2v.6a.2.2 0 01-.2.2h-1.6a.2.2 0 00-.2.2v1.6a.2.2 0 01-.2.2zM4.2 5h3.6c.11 0 .2.09.2.2v.6a.2.2 0 01-.2.2H4.2a.2.2 0 01-.2-.2v-.6c0-.11.09-.2.2-.2z"></path></g></svg>