<svg xmlns="http://www.w3.org/2000/svg" viewBox="0 0 14 14" id="like"><path d="M13.478 7.016l-1.26 5.39a.557.557 0 01-.084.175c-.135.26-.34.492-.613.66-.287.177-.608.26-.925.259l-8.094-.007a.604.604 0 01-.173 0H1.176a.574.574 0 01-.676-.557L.505 6.15a.574.574 0 01.655-.56l.935-.005v-.01c1.78-.124 3.191-1.538 3.242-3.283a1.628 1.628 0 01-.008-.15c0-.907.76-1.643 1.696-1.643.805 0 1.478.544 1.652 1.273l.008-.001a5.77 5.77 0 01-.193 3.245l3.254.004c.03 0 .06.003.088.007a1.74 1.74 0 011.407.79c.2.314.28.666.254 1.007a.549.549 0 01-.017.19zM1.667 12.362h1.166l.004-5.645-1.165.003-.005 5.642zm10.081-6.21l-4.116-.006a.574.574 0 01-.583-.565c0-.09.023-.174.061-.25l-.006-.005c.233-.42.402-.878.498-1.361h.008s.077-.305.076-.89c0-.464-.088-.887-.088-.887h-.004l.001-.025a.537.537 0 00-.545-.528.537.537 0 00-.546.528l.002.036H6.5s.009.442-.082.9a4.034 4.034 0 01-.142.518l-.003-.002c-.49 1.454-1.271 2.377-2.267 2.961l-.006 5.787 6.6.003c.025 0 .05.002.075.006a.552.552 0 00.22-.078.53.53 0 00.21-.242l.001.001 1.214-5.189-.005-.001a.529.529 0 00-.057-.454.567.567 0 00-.509-.257z" fill="#595959" fill-rule="evenodd"></path></svg>