<svg t="1616894490313" class="icon" viewBox="0 0 1024 1024" version="1.1" xmlns="http://www.w3.org/2000/svg" p-id="1990" width="200" height="200"><path d="M764.81058133 649.43991467c43.008-31.16782933 71.45608533-83.73316267 71.45608534-141.99466667 0-93.07204267-72.36266667-169.07195733-160.88541867-169.07195733-88.74666667 0-160.87995733 78.50666667-160.87995733 171.57870933 0 58.02666667 28.21870933 109.45058133 70.76795733 139.94666667-83.28533333 37.322752-142.901248 123.56266667-145.408 223.690752v18.432c0.91204267 13.65333333 12.058624 22.528 23.21066667 22.528 11.60533333 0 23.44004267-12.288 23.44004266-26.85883734v-7.274496c0-109.461504 85.10395733-199.573504 188.86929067-200.93883733 104.00017067 1.36533333 188.874752 91.47733333 188.874752 200.93883733v7.274496c0 14.794752 9.33341867 24.576 23.43458133 24.576 14.11208533 0 23.445504-9.781248 23.445504-24.576v-7.274496c-0.23483733-103.54141867-60.75733333-192.970752-146.325504-230.97617066z m-89.42933333-22.069248c-63.029248 0-114.229248-53.93066667-114.229248-120.14933334s51.42391467-120.14933333 114.229248-120.14933333c63.04017067 0 114.24017067 53.93066667 114.24017067 120.14933333s-51.2 120.14933333-114.24017067 120.14933334z" fill="#FF6500" p-id="1991"></path><path d="M901.80266667 953.46141867H122.19733333c-54.84270933 0-99.43995733-44.60817067-99.43995733-99.44541867V306.74670933c0-54.84270933 44.60270933-99.43995733 99.43995733-99.43995733h779.829248c54.84817067 0 99.44541867 44.60270933 99.44541867 99.43995733v547.49866667c-0.22391467 54.607872-44.83208533 99.21604267-99.66933333 99.21604267zM122.19733333 271.01866667c-19.56795733 0-35.72804267 15.93070933-35.72804266 35.72804266v547.49866667c0 19.57341867 15.93070933 35.733504 35.72804266 35.733504h779.829248c19.57341867 0 35.733504-15.93617067 35.733504-35.733504V306.74670933c0-19.56795733-15.93617067-35.72804267-35.733504-35.72804266H122.19733333z" fill="#9B9B9B" p-id="1992"></path><path d="M135.85066667 453.06129067l121.74404266 127.88804266L446.464 394.35195733l-37.093376-39.141376-153.141248 149.05070934-84.65066667-88.74666667-35.72804266 37.54666667z" fill="#9B9B9B" p-id="1993"></path><path d="M152.53504 439.04c0 13.66528 10.50624 24.74496 23.46496 24.74496s23.46496-11.07968 23.46496-24.74496-10.50624-24.74496-23.46496-24.74496-23.46496 11.07968-23.46496 24.74496zM408.53504 382.93504c-0.01024 14.14144 10.96704 25.61024 24.51456 25.62048s24.54016-11.43808 24.5504-25.57952v-0.04096c0.01024-14.13632-10.96704-25.60512-24.51456-25.62048-13.54752-0.01024-24.54016 11.4432-24.5504 25.57952v0.04096z" fill="#9B9B9B" p-id="1994"></path></svg>