<svg t="1615812510309" class="icon" viewBox="0 0 1024 1024" version="1.1" xmlns="http://www.w3.org/2000/svg" p-id="4362" width="28" height="28"><path d="M213.9 15.2H810c132.5 0 198.7 66.2 198.7 198.7V810c0 132.5-66.2 198.7-198.7 198.7H213.9c-132.5 0-198.7-66.2-198.7-198.7V213.9c0-132.5 66.3-198.7 198.7-198.7z" fill="#FFE43C" p-id="4363"></path><path d="M810 15.2H533.6C292.6 74 97.6 250.5 15.2 484.4V810c0 109.7 89 198.7 198.7 198.7H810c109.7 0 198.7-89 198.7-198.7V213.9c0-109.8-88.9-198.7-198.7-198.7z" fill="#00F5D4" p-id="4364"></path><path d="M810 15.2h-3.7c-395.5 85.5-646.8 475.5-561.3 871 9.1 41.9 21.8 82.8 38 122.5h527c109.7 0 198.7-89 198.7-198.7V213.9c0-109.8-88.9-198.7-198.7-198.7z" fill="#01BEFF" p-id="4365"></path><path d="M977.8 107.3c-14.2-22.4-32.9-42-55.4-57.4-259 120-424.8 379.5-424.7 664.9-0.1 101.1 20.8 201.2 61.4 293.8H810c18.7 0 36.8-2.6 53.9-7.4-65.2-99-105.6-236.7-105.6-388.9 0-227.8 90.7-423.1 219.5-505z" fill="#9A5CE5" p-id="4366"></path><path d="M1008.7 810V213.9c0-38.3-11-75.1-31-106.5-128.8 81.9-219.4 277.2-219.4 505 0 152.2 40.4 289.8 105.6 388.9 83.6-23.5 144.8-100.3 144.8-191.3z" fill="#F15BB5" p-id="4367"></path><path d="M852.6 711.1c-89.7 25.3-133.4 68.6-195 98.8 48.2 10.8 96.4 14.3 152.2 14.3 82.1 0 166.5-45 198.9-78.2v-33.7c-49.6-12.4-82.7-21.9-156.1-1.2zM163.4 686.2c-0.1 0-0.2-0.1-0.2-0.1-53.6-26.8-105-37.4-148-40.4v77.2c24.2-10.6 74.4-28.6 148.2-36.7zM547.9 841c45.7-4.9 79.8-16.5 109.7-31.1-33-7.4-66-18.1-101.5-33.5-85.9-37.4-174.8-96-325.7-94.2-24.2 0.3-46.4 1.8-67 4.1C303.2 756.1 408.1 855.9 547.9 841z" fill="#FFFFFF" opacity=".2" p-id="4368"></path><path d="M657.6 809.8c-29.9 14.6-64 26.2-109.7 31.1-139.8 15-244.7-84.8-384.4-154.7-73.9 8.1-124 26.1-148.2 36.6V810c0 132.5 66.2 198.7 198.7 198.7h596c132.5 0 198.7-66.2 198.7-198.7v-64.1c-32.4 33.2-116.8 78.2-198.9 78.2-55.8 0-104-3.5-152.2-14.3z" fill="#FFFFFF" opacity=".2" p-id="4369"></path><path d="M657.6 809.8c-29.9 14.6-64 26.2-109.7 31.1-139.8 15-244.7-84.8-384.4-154.7-73.9 8.1-124 26.1-148.2 36.6V810c0 132.5 66.2 198.7 198.7 198.7h596c132.5 0 198.7-66.2 198.7-198.7v-64.1c-32.4 33.2-116.8 78.2-198.9 78.2-55.8 0-104-3.5-152.2-14.3z" fill="#FFFFFF" opacity=".2" p-id="4370"></path><path d="M142 608.9m-18.8 0a18.8 18.8 0 1 0 37.6 0 18.8 18.8 0 1 0-37.6 0Z" fill="#FFFFFF" opacity=".5" p-id="4371"></path><path d="M935.2 458.1m-18.8 0a18.8 18.8 0 1 0 37.6 0 18.8 18.8 0 1 0-37.6 0Z" fill="#FFFFFF" opacity=".5" p-id="4372"></path><path d="MNaN NaNaNaN NaN NaN 1 0 NaN NaN NaN NaN NaN 1 0 NaN NaNZ" fill="#FFFFFF" p-id="4373"></path><path d="M332.1 67.6m-9.4 0a9.4 9.4 0 1 0 18.8 0 9.4 9.4 0 1 0-18.8 0Z" fill="#FFFFFF" p-id="4374"></path><path d="M107.6 340.2m-9.4 0a9.4 9.4 0 1 0 18.8 0 9.4 9.4 0 1 0-18.8 0Z" fill="#FFFFFF" p-id="4375"></path><path d="M977.8 306.3m-9.4 0a9.4 9.4 0 1 0 18.8 0 9.4 9.4 0 1 0-18.8 0Z" fill="#FFFFFF" opacity=".6" p-id="4376"></path><path d="M938.4 663.5m-15.5 0a15.5 15.5 0 1 0 31 0 15.5 15.5 0 1 0-31 0Z" fill="#FFFFFF" opacity=".8" p-id="4377"></path><path d="M495.126344 65.195045a15.5 15.5 0 1 0 4.966464-30.599579 15.5 15.5 0 1 0-4.966464 30.599579Z" fill="#FFFFFF" opacity=".8" p-id="4378"></path><path d="M843.5 423.1L624 391.2l-97.9-198.4c-1.6-3.1-4.3-5.6-7.6-7.1-7.9-3.4-17 0.2-20.5 8.1l-97.9 198.4-219 31.9c-2.7 0.5-5.2 1.8-7.2 3.5-6.5 5.7-7.1 15.5-1.5 21.9L331 604.1l-37 218.2c-0.5 3.3 0 6.6 1.5 9.6 3.9 7.6 13.3 10.7 20.9 6.8l195.8-102 195.8 102c2.9 1.5 6.3 2 9.6 1.5 8.5-1.4 14.2-9.3 12.9-17.8L693 604.2l159.1-155.5c1.8-2.1 3-4.5 3.5-7.2 1.8-8.5-3.7-16.7-12.1-18.4zM580.2 550.4l-24.1 24.1-32.5 32.5c-6.3 6.3-16.6 6.3-23 0L468 574.4l-24-24c-19-19-19-49.9 0-69 18.8-18.8 49-19 68.1-0.8 19.1-18.2 49.3-18 68.1 0.8 19.1 19.1 19.1 50 0 69z" fill="#FFDEEB" p-id="4379"></path><path d="M625.3 390.7l-99.2-197.8c-3.9-7.7-13.2-10.8-20.9-6.9-3 1.5-5.4 3.9-6.9 6.9l-97.9 198.4-219.8 31.9c-8.4 1.7-13.9 9.9-12.2 18.3 0.5 2.7 1.8 5.2 3.5 7.2L331 604.1l-15 86.7c149.8-6.2 284-94.4 349-229.5 10-19.7 18.5-40.2 25.5-61.2l-65.2-9.4z m-45.1 159.7l-24.1 24.1-32.5 32.5c-6.3 6.3-16.6 6.3-23 0L468 574.4l-24-24c-19-19-19-49.9 0-69 18.8-18.8 49-19 68.1-0.8 19.1-18.2 49.3-18 68.1 0.8 19.1 19.1 19.1 50 0 69z" fill="#FFFFFF" p-id="4380"></path></svg>